<?xml version="1.0" encoding="utf-8"?>
<!-- Generator: Adobe Illustrator 21.0.2, SVG Export Plug-In . SVG Version: 6.00 Build 0)  -->
<svg version="1.1" id="Ebene_1" xmlns="http://www.w3.org/2000/svg" xmlns:xlink="http://www.w3.org/1999/xlink" x="0px" y="0px"
	 viewBox="0 0 275.8 277.8" style="enable-background:new 0 0 275.8 277.8;" xml:space="preserve">
<style type="text/css">
	.st0{fill:#FFFFFF;}
</style>
<image style="overflow:visible;" width="76" height="71" xlink:href="A413701D.jpg"  transform="matrix(1 0 0 1 -8054.0781 -7954.8555)">
</image>
<path class="st0" d="M174.1,231.4c-11.2,4.3-23.4,6.7-36.2,6.7c-55.2,0-100-44.8-100-100c0-37.8,21-70.7,51.9-87.7l-14-30
	c-42.2,22.3-71,66.6-71,117.7c0,73.5,59.5,133,133,133c17.7,0,34.6-3.5,50.1-9.8L174.1,231.4z"/>
<path class="st0" d="M270.9,138.1c0,47.4-24.8,89-62.2,112.6l-14.1-30.3c26.1-18,43.3-48.2,43.3-82.3c0-24.1-8.5-46.2-22.7-63.4
	l-50.3,139.4l-38-68l-23,59l-37-77l17-32l22,50l21-67l35,67l22.8-96.4c-14-7.4-29.9-11.6-46.8-11.6c-9.2,0-18,1.2-26.5,3.5
	L97.4,11.4c12.8-4.1,26.4-6.3,40.5-6.3C211.4,5.1,270.9,64.7,270.9,138.1z"/>
</svg>
