<?xml version="1.0" standalone="no"?>
<!DOCTYPE svg PUBLIC "-//W3C//DTD SVG 20010904//EN"
 "http://www.w3.org/TR/2001/REC-SVG-20010904/DTD/svg10.dtd">
<svg version="1.0" xmlns="http://www.w3.org/2000/svg"
 width="321.000000pt" height="321.000000pt" viewBox="0 0 321.000000 321.000000"
 preserveAspectRatio="xMidYMid meet">
<metadata>
Created by potrace 1.11, written by Peter Selinger 2001-2013
</metadata>
<g transform="translate(0.000000,321.000000) scale(0.100000,-0.100000)"
fill="#000000" stroke="none">
<path d="M1557 3204 c-1 -1 -40 -4 -87 -8 -47 -3 -101 -9 -120 -12 -62 -10
-205 -44 -219 -53 -10 -7 -6 -23 22 -82 19 -41 54 -117 78 -169 23 -52 47
-100 51 -106 7 -9 22 -8 62 2 148 39 362 36 544 -6 77 -18 244 -81 268 -101 7
-6 1 -43 -18 -120 -16 -62 -30 -122 -33 -133 -9 -43 -14 -65 -40 -172 -15 -60
-29 -120 -31 -134 -3 -14 -32 -135 -64 -270 -32 -135 -62 -262 -66 -283 -3
-21 -10 -35 -14 -30 -8 8 -48 82 -170 318 -40 77 -94 181 -120 230 -26 50 -65
123 -85 164 -26 50 -40 69 -45 60 -4 -8 -49 -147 -100 -309 -51 -162 -103
-329 -116 -370 -13 -41 -24 -81 -24 -89 0 -29 -19 4 -75 134 -32 72 -70 158
-86 192 -15 35 -45 102 -65 150 -21 49 -40 92 -44 96 -4 5 -17 -11 -28 -35
-12 -24 -42 -81 -68 -128 -25 -47 -61 -114 -80 -150 l-34 -66 41 -84 c23 -47
65 -134 94 -195 29 -60 90 -186 135 -280 44 -93 103 -215 129 -269 l48 -100
68 175 c114 291 192 493 199 513 7 19 7 19 20 0 7 -10 73 -127 146 -259 134
-240 154 -277 188 -338 11 -17 38 -67 61 -109 24 -43 46 -78 49 -78 6 0 142
366 157 420 2 8 45 128 95 265 50 138 113 313 141 390 28 77 55 149 59 160 5
11 41 111 80 222 40 112 76 200 81 198 10 -7 90 -127 123 -186 58 -105 115
-285 132 -419 8 -63 9 -213 1 -280 -37 -311 -198 -603 -442 -798 -40 -33 -70
-64 -66 -68 4 -5 43 -87 86 -182 l78 -172 26 16 c69 44 182 137 257 211 336
336 504 802 460 1276 -8 86 -10 98 -32 201 -100 476 -441 895 -898 1106 -84
39 -242 92 -311 105 -22 5 -47 10 -55 11 -67 14 -332 36 -343 28z"/>
<path d="M767 2966 c-399 -251 -662 -640 -742 -1101 -26 -150 -24 -412 5 -539
5 -22 11 -53 13 -67 10 -52 48 -178 73 -240 216 -532 673 -899 1238 -993 135
-23 380 -23 497 -1 97 19 143 29 204 47 94 27 145 48 145 60 0 10 -17 48 -90
205 -27 55 -51 111 -55 123 -8 25 2 26 -150 -14 -168 -44 -319 -51 -505 -22
-148 23 -316 90 -455 182 -494 325 -677 970 -427 1504 97 207 270 402 454 513
l57 34 -48 104 c-94 204 -120 259 -124 259 -2 0 -43 -24 -90 -54z"/>
</g>
</svg>
